<?xml version="1.0" standalone="no"?>
<!DOCTYPE svg PUBLIC "-//W3C//DTD SVG 20010904//EN"
 "http://www.w3.org/TR/2001/REC-SVG-20010904/DTD/svg10.dtd">
<svg version="1.0" xmlns="http://www.w3.org/2000/svg"
 width="168.000000pt" height="18.000000pt" viewBox="0 0 168.000000 18.000000"
 preserveAspectRatio="xMidYMid meet">
<metadata>
Created by potrace 1.15, written by Peter Selinger 2001-2017
</metadata>
<g transform="translate(0.000000,18.000000) scale(0.100000,-0.100000)"
fill="#000000" stroke="none">
<path d="M0 90 l0 -90 53 0 c54 0 97 20 97 45 0 29 19 24 39 -10 19 -33 24
-35 70 -35 41 0 49 3 45 15 -4 8 -19 15 -35 15 -18 0 -32 7 -39 20 -9 17 -8
20 10 20 13 0 20 7 20 20 0 13 -7 20 -20 20 -13 0 -18 5 -14 15 4 8 19 15 35
15 18 0 32 7 39 20 10 19 8 20 -39 20 -46 0 -51 -3 -71 -35 -21 -34 -40 -39
-40 -10 0 25 -43 45 -97 45 l-53 0 0 -90z"/>
<path d="M420 160 c-24 -24 -34 -62 -26 -95 11 -44 41 -65 92 -65 35 0 50 5
66 23 l21 23 23 -23 c34 -34 105 -33 133 3 27 35 27 93 0 128 -17 21 -29 26
-65 26 -59 0 -94 -32 -94 -86 0 -29 -3 -35 -16 -30 -9 3 -27 -3 -41 -14 -28
-22 -54 -15 -73 21 -24 45 47 94 80 55 13 -17 40 -11 40 9 0 43 -103 62 -140
25z"/>
<path d="M770 90 c0 -82 2 -90 19 -90 17 0 20 8 23 48 l3 47 18 -32 c21 -40
47 -42 69 -6 l17 28 1 -42 c0 -39 2 -43 25 -43 25 0 25 1 25 90 0 87 -1 90
-23 90 -16 0 -30 -13 -51 -47 l-28 -47 -26 47 c-20 34 -33 47 -49 47 -22 0
-23 -3 -23 -90z"/>
<path d="M1000 90 c0 -83 1 -90 20 -90 16 0 20 7 20 30 0 28 2 30 40 30 43 0
60 18 60 64 0 40 -25 56 -86 56 l-54 0 0 -90z"/>
<path d="M1162 90 l-41 -90 25 0 c16 0 28 8 36 25 16 35 60 35 76 0 10 -22 18
-25 62 -25 l50 0 0 48 1 47 40 -47 c23 -27 50 -48 60 -48 17 0 19 8 19 90 0
83 -1 90 -20 90 -17 0 -20 -7 -20 -52 l0 -53 -46 53 c-25 28 -54 52 -65 52
-16 0 -19 -10 -21 -87 l-3 -87 -37 85 c-50 116 -62 116 -116 -1z"/>
</g>
</svg>
