<?xml version="1.0" encoding="UTF-8"?>
<svg width="24px" height="24px" viewBox="0 0 24 24" version="1.1" xmlns="http://www.w3.org/2000/svg" xmlns:xlink="http://www.w3.org/1999/xlink">
    <!-- Generator: sketchtool 54.1 (76490) - https://sketchapp.com -->
    <title>038888D8-9941-4BEA-8893-6C14B94B48AE</title>
    <desc>Created with sketchtool.</desc>
    <defs>
        <path d="M2,0 L22,0 C23.1045695,-2.02906125e-16 24,0.8954305 24,2 L24,22 C24,23.1045695 23.1045695,24 22,24 L2,24 C0.8954305,24 1.3527075e-16,23.1045695 0,22 L0,2 C-1.3527075e-16,0.8954305 0.8954305,2.02906125e-16 2,0 Z M20.8,20.8 L20.8,14.3526201 C20.8,11.1862829 20.1176388,8.75206019 16.4245896,8.75206019 C14.6502969,8.75206019 13.4607754,9.72667308 12.9743626,10.6512466 L12.9244149,10.6512466 L12.9244149,9.04382819 L9.42808243,9.04382819 L9.42808243,20.8 L13.0711841,20.8 L13.0711841,14.9854256 C13.0711841,13.4519115 13.3608802,11.9661272 15.2581209,11.9661272 C17.1300035,11.9661272 17.1530562,13.7198145 17.1530562,15.0831948 L17.1530562,20.8 L20.8,20.8 Z M5.3162417,7.43794944 C6.48271044,7.43794944 7.43017813,6.48874114 7.43017813,5.3185898 C7.43017813,4.14920829 6.48271044,3.2 5.3162417,3.2 C4.14439399,3.2 3.2,4.14920829 3.2,5.3185898 C3.2,6.48874114 4.14439399,7.43794944 5.3162417,7.43794944 Z M7.14048201,20.8 L7.14048201,9.04382819 L3.48969612,9.04382819 L3.48969612,20.8 L7.14048201,20.8 Z" id="path-1"></path>
    </defs>
    <g id="Symbols" stroke="none" stroke-width="1" fill="none" fill-rule="evenodd">
        <g id="ic/sns-in">
            <g id="Fill-34" transform="translate(1.000000, 1.000000)"></g>
            <mask id="mask-2" fill="white">
                <use xlink:href="#path-1"></use>
            </mask>
            <use id="Combined-Shape" fill="#D8D8D8" xlink:href="#path-1"></use>
            <g id="color/white" mask="url(#mask-2)" fill="#FFFFFF">
                <rect id="Rectangle" x="0" y="0" width="24" height="24"></rect>
            </g>
        </g>
    </g>
</svg>