<?xml version="1.0" encoding="UTF-8"?>
<svg width="168px" height="25px" viewBox="0 0 168 25" version="1.1" xmlns="http://www.w3.org/2000/svg" xmlns:xlink="http://www.w3.org/1999/xlink">
    <!-- Generator: sketchtool 54.1 (76490) - https://sketchapp.com -->
    <title>1400B174-D9A8-4F23-87C5-D3F36CE69375</title>
    <desc>Created with sketchtool.</desc>
    <defs>
        <path d="M65.6459274,18.7014342 L71.0535667,6.61538462 L72.78125,6.61538462 L78.7964602,20.4615385 L76.57286,20.4615385 L75.1628339,17.0395295 L68.4726022,17.0395295 L67.0820073,20.4615385 L65.7876106,20.4615385 L57.4247788,20.4615385 L57.4247788,6.61538462 L59.3316464,6.61538462 L59.3316464,18.7014342 L65.6459274,18.7014342 Z M31.4070796,6.61538462 L36.2682446,6.61538462 C37.1529235,6.61538462 37.8814337,6.73606096 38.4546059,6.97741364 C39.0277781,7.21876633 39.4788397,7.52503456 39.8111134,7.89621835 C40.1425565,8.26740213 40.3743175,8.68519195 40.5047349,9.1479233 C40.6343217,9.61065466 40.699115,10.0575732 40.699115,10.4878468 C40.699115,10.9181204 40.6343217,11.365039 40.5047349,11.8269381 C40.3743175,12.2905017 40.1425565,12.7074593 39.8111134,13.0786431 C39.4796704,13.4498268 39.0277781,13.7560951 38.4546059,13.9974478 C37.8814337,14.2388004 37.1537541,14.3594768 36.2682446,14.3594768 L33.2811036,14.3594768 L33.2811036,20.4615385 L31.4070796,20.4615385 L31.4070796,6.61538462 Z M33.2811036,12.7174463 L35.74076,12.7174463 C36.1045998,12.7174463 36.4659475,12.6883175 36.8248031,12.63006 C37.1828281,12.5709702 37.5009802,12.4636098 37.7809208,12.3071467 C38.0608615,12.1506836 38.2843156,11.9259759 38.4546059,11.6321915 C38.6232348,11.338407 38.7087953,10.9572362 38.7087953,10.4878468 C38.7087953,10.0184575 38.6232348,9.63728668 38.4546059,9.3435022 C38.2851463,9.04971773 38.0608615,8.82501006 37.7809208,8.66854694 C37.5009802,8.51208382 37.1819974,8.40472348 36.8248031,8.34563369 C36.4659475,8.28654389 36.1054305,8.25741512 35.74076,8.25741512 L33.2811036,8.25741512 L33.2811036,12.7174463 Z M48.597747,20.4615385 C47.5769681,20.4615385 46.6389767,20.2849475 45.7829692,19.9317657 C44.9269617,19.577792 44.1931261,19.0907811 43.58307,18.4707332 C42.9714065,17.8506852 42.4939713,17.1181892 42.1475494,16.274829 C41.8003239,15.4314687 41.6283186,14.5192143 41.6283186,13.5388575 C41.6283186,12.5585007 41.8011276,11.6470381 42.1475494,10.802886 C42.4939713,9.95952575 42.9714065,9.22782165 43.58307,8.60698181 C44.1939299,7.98693386 44.9269617,7.49992301 45.7829692,7.14594928 C46.6389767,6.79197554 47.5769681,6.61538462 48.597747,6.61538462 C49.6177222,6.61538462 50.5557135,6.79197554 51.4117211,7.14594928 C52.2677286,7.49913112 53.0015641,7.98693386 53.612424,8.60698181 C54.2232838,9.22782165 54.700719,9.95952575 55.0471408,10.802886 C55.3943664,11.6462462 55.5663717,12.5585007 55.5663717,13.5388575 C55.5663717,14.5192143 55.3935626,15.4306768 55.0471408,16.274829 C54.700719,17.1181892 54.2232838,17.8506852 53.612424,18.4707332 C53.0007604,19.0907811 52.2677286,19.577792 51.4117211,19.9317657 C50.5549098,20.2841556 49.6169184,20.4615385 48.597747,20.4615385 Z M48.597747,18.7866963 C49.3653406,18.7866963 50.0573805,18.6473241 50.6754742,18.3677878 C51.2927641,18.0882515 51.8208364,17.7136887 52.2621022,17.2417237 C52.7025643,16.7705506 53.0433598,16.2154374 53.2820774,15.5763842 C53.5215988,14.9373309 53.6413594,14.2578914 53.6413594,13.5388575 C53.6413594,12.8198236 53.5215988,12.1403841 53.2820774,11.5013308 C53.0433598,10.8622776 52.7025643,10.3071644 52.2621022,9.8351994 C51.8208364,9.36402631 51.2927641,8.98867161 50.6754742,8.7091353 C50.0573805,8.43039088 49.3653406,8.29101868 48.597747,8.29101868 C47.8293496,8.29101868 47.136506,8.43039088 46.5200198,8.7091353 C45.9019261,8.98867161 45.3738539,9.36402631 44.932588,9.8351994 C44.4913222,10.3071644 44.1513304,10.8622776 43.9126129,11.5013308 C43.6730915,12.1403841 43.5541346,12.8198236 43.5541346,13.5388575 C43.5541346,14.2578914 43.6730915,14.9381228 43.9126129,15.5763842 C44.1513304,16.2154374 44.4913222,16.7705506 44.932588,17.2417237 C45.3738539,17.7136887 45.9019261,18.0882515 46.5200198,18.3677878 C47.1357022,18.6473241 47.8285459,18.7866963 48.597747,18.7866963 Z M74.4683813,15.3959333 L71.8477096,9.03958501 L71.8071576,9.03958501 L69.1476237,15.3959333 L74.4683813,15.3959333 Z M78.7964602,6.61538462 L83.3964933,6.61538462 C84.233649,6.61538462 84.9230251,6.73606096 85.4654077,6.97741364 C86.0077902,7.21876633 86.4346218,7.52503456 86.7490464,7.89621835 C87.0626851,8.26740213 87.2819963,8.68519195 87.405408,9.1479233 C87.5280336,9.61065466 87.5893464,10.0575732 87.5893464,10.4878468 C87.5893464,10.9314364 87.5154566,11.3575487 87.3684631,11.7686806 C87.2206835,12.1798124 87.0076607,12.5509962 86.730181,12.8830642 C86.4527012,13.2159644 86.1146946,13.4964329 85.7145892,13.7244696 C85.3136978,13.9525062 84.8680008,14.0931566 84.3751401,14.1447561 L88.0884956,20.4615385 L85.8718016,20.4615385 L82.5475466,14.3594768 L80.5706014,14.3594768 L80.5706014,20.4615385 L78.7964602,20.4615385 L78.7964602,6.61538462 Z M80.5698154,12.7174463 L82.8973441,12.7174463 C83.2416391,12.7174463 83.583576,12.6883175 83.9231546,12.63006 C84.2619472,12.5709702 84.5630088,12.4636098 84.8279116,12.3071467 C85.0928144,12.1506836 85.304265,11.9259759 85.4654077,11.6321915 C85.6249782,11.338407 85.7059426,10.9572362 85.7059426,10.4878468 C85.7059426,10.0184575 85.6249782,9.63728668 85.4654077,9.3435022 C85.3050511,9.04971773 85.0928144,8.82501006 84.8279116,8.66854694 C84.5630088,8.51208382 84.2611611,8.40472348 83.9231546,8.34563369 C83.583576,8.28654389 83.2424252,8.25741512 82.8973441,8.25741512 L80.5698154,8.25741512 L80.5698154,12.7174463 Z M89.9469027,6.61538462 L91.8053097,6.61538462 L91.8053097,20.4615385 L89.9469027,20.4615385 L89.9469027,6.61538462 Z M95.2186729,17.3715932 C95.5596573,17.8554365 95.9969887,18.2125778 96.5273159,18.4414333 C97.0593186,18.6710807 97.6072395,18.7859044 98.1719165,18.7859044 C98.4869291,18.7859044 98.8086442,18.739183 99.1362238,18.6465322 C99.4646413,18.5530895 99.7628979,18.4137173 100.031832,18.2276237 C100.299927,18.0415301 100.520269,17.8118827 100.69118,17.5386815 C100.861253,17.2662722 100.947547,16.9495172 100.947547,16.5900002 C100.947547,16.0808165 100.776635,15.6935835 100.435651,15.4267174 C100.094667,15.1598513 99.67074,14.936539 99.1655468,14.7567805 C98.6595158,14.5770221 98.1082437,14.4035987 97.5117304,14.2357185 C96.9135415,14.0686303 96.3631071,13.8358153 95.8570762,13.5380656 C95.3510452,13.2403159 94.9287942,12.8404127 94.586972,12.3375641 C94.2459875,11.8355074 94.0750764,11.1560678 94.0750764,10.3000374 C94.0750764,9.91597193 94.1638832,9.50656607 94.3406589,9.0718198 C94.5182724,8.63786542 94.7972597,8.24112976 95.1776207,7.88082092 C95.5579817,7.52130397 96.0472567,7.22038671 96.6446078,6.97806911 C97.2419589,6.73575152 97.9599532,6.61538462 98.8002662,6.61538462 C99.5609882,6.61538462 100.289036,6.71437056 100.985248,6.91313433 C101.680621,7.11189811 102.291377,7.51496887 102.816677,8.12234663 L101.280991,9.44400695 C101.044731,9.0971602 100.709611,8.8176239 100.277307,8.60618992 C99.8433267,8.39554783 99.3523761,8.29022679 98.8002662,8.29022679 C98.2749658,8.29022679 97.8384722,8.35516157 97.4916232,8.48582301 C97.1430986,8.61648446 96.8641113,8.78357273 96.6546614,8.98787972 C96.4443737,9.1929786 96.296921,9.41312334 96.2114654,9.64831394 C96.1260098,9.88429643 96.0841199,10.1012736 96.0841199,10.2992455 C96.0841199,10.8575262 96.2541932,11.2859374 96.5960154,11.5836871 C96.9369999,11.8814368 97.3600887,12.1237544 97.8661196,12.309848 C98.3713128,12.4959416 98.9225849,12.6638217 99.519936,12.8126966 C100.117287,12.9615715 100.668559,13.169046 101.17459,13.4359121 C101.679783,13.7027782 102.102034,14.063087 102.444694,14.5152548 C102.785679,14.9682145 102.955752,15.59143 102.955752,16.3856932 C102.955752,17.0184114 102.828407,17.5893623 102.57204,18.0977541 C102.315673,18.6069378 101.971338,19.0345571 101.539033,19.3821957 C101.105053,19.7298344 100.593995,19.9959086 100.003346,20.1820022 C99.4126977,20.3680957 98.7826724,20.4615385 98.1132705,20.4615385 C97.2201761,20.4615385 96.3739985,20.3126636 95.5730621,20.0149139 C94.7729635,19.7171642 94.1362358,19.2586613 93.6637168,18.6378214 L95.2186729,17.3715932 Z M111.015133,17.3715932 C111.356117,17.8554365 111.793449,18.2125778 112.323776,18.4414333 C112.855779,18.6710807 113.4037,18.7859044 113.968377,18.7859044 C114.283389,18.7859044 114.605104,18.739183 114.932684,18.6465322 C115.261101,18.5530895 115.559358,18.4137173 115.828292,18.2276237 C116.096388,18.0415301 116.316729,17.8118827 116.48764,17.5386815 C116.657713,17.2662722 116.744007,16.9495172 116.744007,16.5900002 C116.744007,16.0808165 116.573096,15.6935835 116.232111,15.4267174 C115.891127,15.1598513 115.4672,14.936539 114.962007,14.7567805 C114.455976,14.5770221 113.904704,14.4035987 113.308191,14.2357185 C112.710002,14.0686303 112.159567,13.8358153 111.653536,13.5380656 C111.147505,13.2403159 110.725254,12.8404127 110.383432,12.3375641 C110.042448,11.8355074 109.871537,11.1560678 109.871537,10.3000374 C109.871537,9.91597193 109.960343,9.50656607 110.137119,9.0718198 C110.314733,8.63786542 110.59372,8.24112976 110.974081,7.88082092 C111.354442,7.52130397 111.843717,7.22038671 112.441068,6.97806911 C113.038419,6.73575152 113.756413,6.61538462 114.596726,6.61538462 C115.357448,6.61538462 116.085496,6.71437056 116.781708,6.91313433 C117.477081,7.11189811 118.087837,7.51496887 118.613138,8.12234663 L117.077451,9.44400695 C116.841191,9.0971602 116.506072,8.8176239 116.073767,8.60618992 C115.639787,8.39554783 115.148836,8.29022679 114.596726,8.29022679 C114.071426,8.29022679 113.634932,8.35516157 113.288083,8.48582301 C112.939559,8.61648446 112.660571,8.78357273 112.451122,8.98787972 C112.240834,9.1929786 112.093381,9.41312334 112.007926,9.64831394 C111.92247,9.88429643 111.88058,10.1012736 111.88058,10.2992455 C111.88058,10.8575262 112.050653,11.2859374 112.392476,11.5836871 C112.73346,11.8814368 113.156549,12.1237544 113.66258,12.309848 C114.167773,12.4959416 114.719045,12.6638217 115.316396,12.8126966 C115.913747,12.9615715 116.465019,13.169046 116.97105,13.4359121 C117.476244,13.7027782 117.898495,14.063087 118.241155,14.5152548 C118.582139,14.9682145 118.752212,15.59143 118.752212,16.3856932 C118.752212,17.0184114 118.624867,17.5893623 118.3685,18.0977541 C118.112133,18.6069378 117.767798,19.0345571 117.335493,19.3821957 C116.901513,19.7298344 116.390455,19.9959086 115.799807,20.1820022 C115.209158,20.3680957 114.579133,20.4615385 113.909731,20.4615385 C113.016636,20.4615385 112.170459,20.3126636 111.369522,20.0149139 C110.569424,19.7171642 109.932696,19.2586613 109.460177,18.6378214 L111.015133,17.3715932 Z M120.611468,6.61538462 L122.526173,6.61538462 L122.526173,12.3650587 L129.845508,12.3650587 L129.845508,6.61538462 L131.761062,6.61538462 L131.761062,20.4615385 L129.844659,20.4615385 L129.844659,14.125163 L122.525325,14.125163 L122.525325,20.4615385 L120.610619,20.4615385 L120.610619,6.61538462 L120.611468,6.61538462 Z M138.885425,6.61538462 L140.613108,6.61538462 L146.628319,20.4615385 L144.404718,20.4615385 L142.994692,17.0395295 L136.304461,17.0395295 L134.913866,20.4615385 L132.690265,20.4615385 L138.885425,6.61538462 Z M142.30024,15.3959333 L139.679568,9.03958501 L139.639016,9.03958501 L136.979482,15.3959333 L142.30024,15.3959333 Z M147.557522,6.61538462 L152.157555,6.61538462 C152.994711,6.61538462 153.684087,6.73606096 154.22647,6.97741364 C154.768852,7.21876633 155.195684,7.52503456 155.510108,7.89621835 C155.823747,8.26740213 156.043058,8.68519195 156.16647,9.1479233 C156.289096,9.61065466 156.350408,10.0575732 156.350408,10.4878468 C156.350408,10.9314364 156.276519,11.3575487 156.129525,11.7686806 C155.981745,12.1798124 155.768723,12.5509962 155.491243,12.8830642 C155.213763,13.2159644 154.875757,13.4964329 154.475651,13.7244696 C154.07476,13.9525062 153.629063,14.0931566 153.136202,14.1447561 L156.849558,20.4615385 L154.632864,20.4615385 L151.308609,14.3594768 L149.331663,14.3594768 L149.331663,20.4615385 L147.558308,20.4615385 L147.558308,6.61538462 L147.557522,6.61538462 Z M149.330877,12.7174463 L151.658406,12.7174463 C152.002701,12.7174463 152.344638,12.6883175 152.684217,12.63006 C153.023009,12.5709702 153.324071,12.4636098 153.588974,12.3071467 C153.853876,12.1506836 154.065327,11.9259759 154.22647,11.6321915 C154.38604,11.338407 154.467004,10.9572362 154.467004,10.4878468 C154.467004,10.0184575 154.38604,9.63728668 154.22647,9.3435022 C154.066113,9.04971773 153.853876,8.82501006 153.588974,8.66854694 C153.324071,8.51208382 153.022223,8.40472348 152.684217,8.34563369 C152.344638,8.28654389 152.003487,8.25741512 151.658406,8.25741512 L149.330877,8.25741512 L149.330877,12.7174463 Z M158.707965,6.61538462 L167.647865,6.61538462 L167.647865,8.37559471 L160.586018,8.37559471 L160.586018,12.5018934 L167.159205,12.5018934 L167.159205,14.2621035 L160.586018,14.2621035 L160.586018,18.7013284 L168,18.7013284 L168,20.4615385 L158.707965,20.4615385 L158.707965,6.61538462 Z M12.39642,15.4259582 C12.4034565,15.4259804 12.410496,15.4259928 12.4175382,15.4259928 C15.7415771,15.4259928 18.436243,12.6621189 18.436243,9.25270758 C18.436243,5.84329631 15.7415771,3.07942238 12.4175382,3.07942238 C12.410496,3.07942238 12.4034565,3.07943479 12.39642,3.07945958 L2.74537409,3.07942238 L2.74537409,7.537991 L2.74537409,8.63558539 C3.18036655,8.95823797 3.46339501,9.4831238 3.46339501,10.0758123 C3.46339501,11.0567657 2.68808763,11.8519856 1.73169751,11.8519856 C0.775307382,11.8519856 0,11.0567657 0,10.0758123 C0,9.4831238 0.283028458,8.95823797 0.718020917,8.63558539 L0.718020917,1.95306859 C0.718020917,1.42670334 1.13403951,1 1.64722446,1 L12.39642,1 C12.3999391,1.00000232 12.4034588,1 12.4069791,1 C16.8448625,1 20.4424779,4.69001414 20.4424779,9.24187726 C20.4424779,13.7937404 16.8448625,17.4837545 12.4069791,17.4837545 C12.4034588,17.4837545 12.3999391,17.4837522 12.39642,17.4837475 L12.39642,24.0469314 C12.39642,24.5732967 11.9804014,25 11.4672164,25 L1.64722446,25 C1.13403951,25 0.718020917,24.5732967 0.718020917,24.0469314 L0.718020917,20.7001547 C0.283028458,20.3775021 0,19.8526163 0,19.2599278 C0,18.2789744 0.775307382,17.4837545 1.73169751,17.4837545 C2.68808763,17.4837545 3.46339501,18.2789744 3.46339501,19.2599278 C3.46339501,19.8591008 3.17413954,20.3889794 2.73104215,20.7106721 L2.74537409,22.9205776 L10.3690668,22.9205776 L10.3690668,17.4837545 L6.1031778,17.4837545 C5.58999285,17.4837545 5.17397426,17.0570512 5.17397426,16.5306859 L5.17397426,11.0288809 C5.17397426,10.5025156 5.58999285,10.0758123 6.1031778,10.0758123 L11.4672164,10.0758123 C11.9804014,10.0758123 12.39642,10.5025156 12.39642,11.0288809 L12.39642,15.4259582 Z M10.3690668,14.9978326 L10.3690668,12.1552347 L7.20132743,12.1552347 L7.20132743,15.4043321 L10.3690668,15.4043321 L10.3690668,14.9978326 Z" id="path-1"></path>
    </defs>
    <g id="Symbols" stroke="none" stroke-width="1" fill="none" fill-rule="evenodd">
        <g id="comp/logo-mono">
            <mask id="mask-2" fill="white">
                <use xlink:href="#path-1"></use>
            </mask>
            <use id="Combined-Shape" fill="#464646" fill-rule="nonzero" xlink:href="#path-1"></use>
            <g id="color/grey-30" mask="url(#mask-2)" fill="#B3B3B3">
                <rect id="Rectangle" x="0" y="0" width="168" height="26"></rect>
            </g>
        </g>
    </g>
</svg>