<?xml version="1.0" encoding="UTF-8"?>
<svg width="217px" height="44px" viewBox="0 0 217 44" version="1.1" xmlns="http://www.w3.org/2000/svg" xmlns:xlink="http://www.w3.org/1999/xlink">
    <!-- Generator: sketchtool 54.1 (76490) - https://sketchapp.com -->
    <title>03D9E8FB-FA13-4B29-A7BF-544786FE74C4</title>
    <desc>Created with sketchtool.</desc>
    <g id="Symbols" stroke="none" stroke-width="1" fill="none" fill-rule="evenodd">
        <g id="comp/logo" fill-rule="nonzero">
            <path d="M81.8475218,28.0932203 L87.6671718,15 L89.5264881,15 L96,30 L93.6069827,30 L92.089526,26.2928237 L84.8895624,26.2928237 L83.3930173,30 L82,30 L73,30 L73,15 L75.0521528,15 L75.0521528,28.0932203 L81.8475218,28.0932203 Z M45,15 L50.2315394,15 C51.1836224,15 51.9676381,15.1307327 52.5844806,15.3921981 C53.2013231,15.6536635 53.6867513,15.9854541 54.0443411,16.3875699 C54.401037,16.7896856 54.6504559,17.2422913 54.7908099,17.7435836 C54.93027,18.2448759 55,18.7290377 55,19.1951674 C55,19.6612971 54.93027,20.1454589 54.7908099,20.6458496 C54.6504559,21.1480435 54.401037,21.5997476 54.0443411,22.0018633 C53.6876453,22.4039791 53.2013231,22.7357697 52.5844806,22.9972351 C51.9676381,23.2587005 51.1845164,23.3894332 50.2315394,23.3894332 L47.0168067,23.3894332 L47.0168067,30 L45,30 L45,15 Z M47.0168067,21.6105668 L49.6638655,21.6105668 C50.0554264,21.6105668 50.4443054,21.5790106 50.8305024,21.5158983 C51.2158055,21.4518844 51.5581977,21.3355773 51.8594672,21.1660756 C52.1607366,20.9965739 52.4012158,20.7531406 52.5844806,20.4348741 C52.7659574,20.1166076 52.8580368,19.7036725 52.8580368,19.1951674 C52.8580368,18.6866623 52.7659574,18.2737272 52.5844806,17.9554607 C52.4021098,17.6371942 52.1607366,17.3937609 51.8594672,17.2242592 C51.5581977,17.0547575 51.2149115,16.9384504 50.8305024,16.8744365 C50.4443054,16.8104226 50.0563204,16.7788664 49.6638655,16.7788664 L47.0168067,16.7788664 L47.0168067,21.6105668 Z M63.5004325,30 C62.4018799,30 61.3924226,29.8086932 60.4711954,29.4260795 C59.5499683,29.0426079 58.7602214,28.5150129 58.1036849,27.8432943 C57.4454184,27.1715756 56.9316072,26.3780383 56.5587913,25.4643981 C56.1851104,24.5507578 56,23.5624821 56,22.5004289 C56,21.4383758 56.1859754,20.450958 56.5587913,19.5364598 C56.9316072,18.6228196 57.4454184,17.8301401 58.1036849,17.1575636 C58.7610864,16.485845 59.5499683,15.9582499 60.4711954,15.5747784 C61.3924226,15.1913068 62.4018799,15 63.5004325,15 C64.5981201,15 65.6075774,15.1913068 66.5288046,15.5747784 C67.4500317,15.9573921 68.2397786,16.485845 68.8971801,17.1575636 C69.5545816,17.8301401 70.0683928,18.6228196 70.4412087,19.5364598 C70.8148896,20.4501001 71,21.4383758 71,22.5004289 C71,23.5624821 70.8140246,24.5498999 70.4412087,25.4643981 C70.0683928,26.3780383 69.5545816,27.1715756 68.8971801,27.8432943 C68.2389136,28.5150129 67.4500317,29.0426079 66.5288046,29.4260795 C65.6067124,29.8078353 64.5972551,30 63.5004325,30 Z M63.5004325,28.1855876 C64.3265094,28.1855876 65.0712762,28.0346011 65.7364627,27.7317701 C66.4007843,27.4289391 66.9690906,27.0231627 67.4439767,26.5118673 C67.9179978,26.0014298 68.2847587,25.4000572 68.5416643,24.7077495 C68.7994349,24.0154418 68.9283202,23.2793823 68.9283202,22.5004289 C68.9283202,21.7214756 68.7994349,20.9854161 68.5416643,20.2931084 C68.2847587,19.6008007 67.9179978,18.9994281 67.4439767,18.4881327 C66.9690906,17.9776952 66.4007843,17.5710609 65.7364627,17.2682299 C65.0712762,16.9662568 64.3265094,16.8152702 63.5004325,16.8152702 C62.6734906,16.8152702 61.9278588,16.9662568 61.2644023,17.2682299 C60.5992157,17.5710609 60.0309094,17.9776952 59.5560233,18.4881327 C59.0811372,18.9994281 58.7152413,19.6008007 58.4583357,20.2931084 C58.2005651,20.9854161 58.0725448,21.7214756 58.0725448,22.5004289 C58.0725448,23.2793823 58.2005651,24.0162997 58.4583357,24.7077495 C58.7152413,25.4000572 59.0811372,26.0014298 59.5560233,26.5118673 C60.0309094,27.0231627 60.5992157,27.4289391 61.2644023,27.7317701 C61.9269938,28.0346011 62.6726256,28.1855876 63.5004325,28.1855876 Z M91.3421627,24.5122611 L88.5218208,17.6262171 L88.4781792,17.6262171 L85.6160141,24.5122611 L91.3421627,24.5122611 Z M96,15 L100.950512,15 C101.851451,15 102.593351,15.1307327 103.177058,15.3921981 C103.760765,15.6536635 104.220117,15.9854541 104.558498,16.3875699 C104.896032,16.7896856 105.132053,17.2422913 105.264868,17.7435836 C105.396836,18.2448759 105.46282,18.7290377 105.46282,19.1951674 C105.46282,19.6757228 105.383301,20.1373445 105.225108,20.5827373 C105.066069,21.0281301 104.836816,21.4302458 104.538195,21.7899862 C104.239574,22.1506281 103.875814,22.454469 103.445225,22.7015087 C103.013789,22.9485484 102.534134,23.1009196 102.003722,23.1568191 L106,30 L103.614415,30 L100.036884,23.3894332 L97.9093139,23.3894332 L97.9093139,30 L96,30 L96,15 Z M97.908468,21.6105668 L100.413332,21.6105668 C100.783859,21.6105668 101.151848,21.5790106 101.5173,21.5158983 C101.881905,21.4518844 102.205905,21.3355773 102.490991,21.1660756 C102.776076,20.9965739 103.003638,20.7531406 103.177058,20.4348741 C103.348786,20.1166076 103.435919,19.7036725 103.435919,19.1951674 C103.435919,18.6866623 103.348786,18.2737272 103.177058,17.9554607 C103.004484,17.6371942 102.776076,17.3937609 102.490991,17.2242592 C102.205905,17.0547575 101.881059,16.9384504 101.5173,16.8744365 C101.151848,16.8104226 100.784705,16.7788664 100.413332,16.7788664 L97.908468,16.7788664 L97.908468,21.6105668 Z M108,15 L110,15 L110,30 L108,30 L108,15 Z M113.673429,26.6525593 C114.040393,27.1767229 114.511045,27.563626 115.081778,27.8115528 C115.654314,28.0603374 116.243982,28.1847298 116.851682,28.1847298 C117.190695,28.1847298 117.536922,28.134115 117.88946,28.0337432 C118.2429,27.9325136 118.563881,27.781527 118.853304,27.5799257 C119.141827,27.3783243 119.378956,27.1295396 119.562889,26.8335716 C119.74592,26.5384615 119.838788,26.1953103 119.838788,25.8058336 C119.838788,25.2542179 119.654855,24.8347155 119.287891,24.5456105 C118.920927,24.2565056 118.464701,24.0145839 117.921017,23.8198456 C117.376431,23.6251072 116.783158,23.4372319 116.141196,23.2553617 C115.49743,23.0743494 114.905058,22.8221333 114.360472,22.4995711 C113.815887,22.1770089 113.361464,21.7437804 112.993598,21.1990277 C112.626634,20.655133 112.442701,19.9190735 112.442701,18.9917072 C112.442701,18.5756363 112.538274,18.1321132 112.728519,17.6611381 C112.919665,17.1910209 113.219908,16.7612239 113.629249,16.3708893 C114.03859,15.9814126 114.565143,15.6554189 115.208006,15.3929082 C115.85087,15.1303975 116.623569,15 117.527906,15 C118.346587,15 119.130105,15.1072348 119.879362,15.3225622 C120.627716,15.5378896 121.285006,15.9745496 121.850329,16.6325422 L120.197638,18.0643409 C119.943378,17.6885902 119.582725,17.3857592 119.117483,17.1567057 C118.650437,16.9285102 118.122081,16.8144124 117.527906,16.8144124 C116.962582,16.8144124 116.492832,16.8847584 116.119556,17.0263083 C115.744478,17.1678582 115.444234,17.3488705 115.218826,17.570203 C114.992516,17.7923935 114.833829,18.0308836 114.741863,18.2856734 C114.649896,18.5413211 114.604815,18.7763798 114.604815,18.9908493 C114.604815,19.5956534 114.787846,20.0597655 115.155712,20.3823277 C115.522676,20.7048899 115.978,20.9674006 116.522586,21.169002 C117.06627,21.3706034 117.659544,21.5524735 118.302407,21.7137546 C118.945271,21.8750357 119.538545,22.0997998 120.08313,22.3889048 C120.626815,22.6780097 121.081237,23.0683443 121.450005,23.5581927 C121.816969,24.0488991 122,24.7240492 122,25.584501 C122,26.2699457 121.862952,26.8884758 121.587053,27.4392336 C121.311153,27.9908493 120.940582,28.4541035 120.47534,28.830712 C120.008295,29.2073206 119.4583,29.4955676 118.822649,29.697169 C118.186998,29.8987704 117.508971,30 116.788567,30 C115.827428,30 114.916779,29.8387189 114.054819,29.5161567 C113.193761,29.1935945 112.50852,28.696883 112,28.0243065 L113.673429,26.6525593 Z M130.673429,26.6525593 C131.040393,27.1767229 131.511045,27.563626 132.081778,27.8115528 C132.654314,28.0603374 133.243982,28.1847298 133.851682,28.1847298 C134.190695,28.1847298 134.536922,28.134115 134.88946,28.0337432 C135.2429,27.9325136 135.563881,27.781527 135.853304,27.5799257 C136.141827,27.3783243 136.378956,27.1295396 136.562889,26.8335716 C136.74592,26.5384615 136.838788,26.1953103 136.838788,25.8058336 C136.838788,25.2542179 136.654855,24.8347155 136.287891,24.5456105 C135.920927,24.2565056 135.464701,24.0145839 134.921017,23.8198456 C134.376431,23.6251072 133.783158,23.4372319 133.141196,23.2553617 C132.49743,23.0743494 131.905058,22.8221333 131.360472,22.4995711 C130.815887,22.1770089 130.361464,21.7437804 129.993598,21.1990277 C129.626634,20.655133 129.442701,19.9190735 129.442701,18.9917072 C129.442701,18.5756363 129.538274,18.1321132 129.728519,17.6611381 C129.919665,17.1910209 130.219908,16.7612239 130.629249,16.3708893 C131.03859,15.9814126 131.565143,15.6554189 132.208006,15.3929082 C132.85087,15.1303975 133.623569,15 134.527906,15 C135.346587,15 136.130105,15.1072348 136.879362,15.3225622 C137.627716,15.5378896 138.285006,15.9745496 138.850329,16.6325422 L137.197638,18.0643409 C136.943378,17.6885902 136.582725,17.3857592 136.117483,17.1567057 C135.650437,16.9285102 135.122081,16.8144124 134.527906,16.8144124 C133.962582,16.8144124 133.492832,16.8847584 133.119556,17.0263083 C132.744478,17.1678582 132.444234,17.3488705 132.218826,17.570203 C131.992516,17.7923935 131.833829,18.0308836 131.741863,18.2856734 C131.649896,18.5413211 131.604815,18.7763798 131.604815,18.9908493 C131.604815,19.5956534 131.787846,20.0597655 132.155712,20.3823277 C132.522676,20.7048899 132.978,20.9674006 133.522586,21.169002 C134.06627,21.3706034 134.659544,21.5524735 135.302407,21.7137546 C135.945271,21.8750357 136.538545,22.0997998 137.08313,22.3889048 C137.626815,22.6780097 138.081237,23.0683443 138.450005,23.5581927 C138.816969,24.0488991 139,24.7240492 139,25.584501 C139,26.2699457 138.862952,26.8884758 138.587053,27.4392336 C138.311153,27.9908493 137.940582,28.4541035 137.47534,28.830712 C137.008295,29.2073206 136.4583,29.4955676 135.822649,29.697169 C135.186998,29.8987704 134.508971,30 133.788567,30 C132.827428,30 131.916779,29.8387189 131.054819,29.5161567 C130.193761,29.1935945 129.50852,28.696883 129,28.0243065 L130.673429,26.6525593 Z M141.000913,15 L143.061501,15 L143.061501,21.2288136 L150.938499,21.2288136 L150.938499,15 L153,15 L153,30 L150.937586,30 L150.937586,23.1355932 L143.060588,23.1355932 L143.060588,30 L141,30 L141,15 L141.000913,15 Z M160.667172,15 L162.526488,15 L169,30 L166.606983,30 L165.089526,26.2928237 L157.889562,26.2928237 L156.393017,30 L154,30 L160.667172,15 Z M164.342163,24.5122611 L161.521821,17.6262171 L161.478179,17.6262171 L158.616014,24.5122611 L164.342163,24.5122611 Z M170,15 L174.950512,15 C175.851451,15 176.593351,15.1307327 177.177058,15.3921981 C177.760765,15.6536635 178.220117,15.9854541 178.558498,16.3875699 C178.896032,16.7896856 179.132053,17.2422913 179.264868,17.7435836 C179.396836,18.2448759 179.46282,18.7290377 179.46282,19.1951674 C179.46282,19.6757228 179.383301,20.1373445 179.225108,20.5827373 C179.066069,21.0281301 178.836816,21.4302458 178.538195,21.7899862 C178.239574,22.1506281 177.875814,22.454469 177.445225,22.7015087 C177.013789,22.9485484 176.534134,23.1009196 176.003722,23.1568191 L180,30 L177.614415,30 L174.036884,23.3894332 L171.909314,23.3894332 L171.909314,30 L170.000846,30 L170.000846,15 L170,15 Z M171.908468,21.6105668 L174.413332,21.6105668 C174.783859,21.6105668 175.151848,21.5790106 175.5173,21.5158983 C175.881905,21.4518844 176.205905,21.3355773 176.490991,21.1660756 C176.776076,20.9965739 177.003638,20.7531406 177.177058,20.4348741 C177.348786,20.1166076 177.435919,19.7036725 177.435919,19.1951674 C177.435919,18.6866623 177.348786,18.2737272 177.177058,17.9554607 C177.004484,17.6371942 176.776076,17.3937609 176.490991,17.2242592 C176.205905,17.0547575 175.881059,16.9384504 175.5173,16.8744365 C175.151848,16.8104226 174.784705,16.7788664 174.413332,16.7788664 L171.908468,16.7788664 L171.908468,21.6105668 Z M182,15 L191.621036,15 L191.621036,16.9068943 L184.021143,16.9068943 L184.021143,21.3770512 L191.095144,21.3770512 L191.095144,23.2839454 L184.021143,23.2839454 L184.021143,28.0931057 L192,28.0931057 L192,30 L182,30 L182,15 Z" id="Combined-Shape" fill="#464646"></path>
            <path d="M24.5409091,24.6281214 C24.5484818,24.6281454 24.5560576,24.6281588 24.5636364,24.6281588 C28.1409353,24.6281588 31.0409091,21.6339621 31.0409091,17.9404332 C31.0409091,14.2469043 28.1409353,11.2527076 24.5636364,11.2527076 C24.5560576,11.2527076 24.5484818,11.252721 24.5409091,11.2527479 L14.1545455,11.2527076 L14.1545455,16.0828236 L14.1545455,17.2718842 C14.6226802,17.6214245 14.9272727,18.1900508 14.9272727,18.83213 C14.9272727,19.8948295 14.0928943,20.7563177 13.0636364,20.7563177 C12.0343784,20.7563177 11.2,19.8948295 11.2,18.83213 C11.2,18.1900508 11.5045925,17.6214245 11.9727273,17.2718842 L11.9727273,10.032491 C11.9727273,9.46226196 12.4204425,9 12.9727273,9 L24.5409091,9 C24.5446964,9.00000252 24.5484843,9 24.5522727,9 C29.3282806,9 33.2,12.9975153 33.2,17.9287004 C33.2,22.8598854 29.3282806,26.8574007 24.5522727,26.8574007 C24.5484843,26.8574007 24.5446964,26.8573982 24.5409091,26.8573932 L24.5409091,33.967509 C24.5409091,34.537738 24.0931938,35 23.5409091,35 L12.9727273,35 C12.4204425,35 11.9727273,34.537738 11.9727273,33.967509 L11.9727273,30.3418342 C11.5045925,29.9922939 11.2,29.4236676 11.2,28.7815884 C11.2,27.7188889 12.0343784,26.8574007 13.0636364,26.8574007 C14.0928943,26.8574007 14.9272727,27.7188889 14.9272727,28.7815884 C14.9272727,29.4306925 14.6159787,30.0047277 14.1391216,30.3532282 L14.1545455,32.7472924 L22.3590909,32.7472924 L22.3590909,26.8574007 L17.7681818,26.8574007 C17.2158971,26.8574007 16.7681818,26.3951388 16.7681818,25.8249097 L16.7681818,19.8646209 C16.7681818,19.2943919 17.2158971,18.83213 17.7681818,18.83213 L23.5409091,18.83213 C24.0931938,18.83213 24.5409091,19.2943919 24.5409091,19.8646209 L24.5409091,24.6281214 Z M22.3590909,24.1643187 L22.3590909,21.0848375 L18.95,21.0848375 L18.95,24.6046931 L22.3590909,24.6046931 L22.3590909,24.1643187 Z" id="Combined-Shape" fill="#3681FE"></path>
        </g>
    </g>
</svg>